HIERARCHY
ROOT hips
{
  OFFSET 0 10.6860622 2.3727825e-15
  CHANNELS 6 Xposition Yposition Zposition Yrotation Xrotation Zrotation
  JOINT leftUpperLeg
  {
    OFFSET 0.6642549969 -0.9402397400000004 0
    CHANNELS 3 Yrotation Xrotation Zrotation
    JOINT leftLowerLeg
    {
      OFFSET 0 -3.997221335632195 0
      CHANNELS 3 Yrotation Xrotation Zrotation
      JOINT leftFoot
      {
        OFFSET -0.13777839790000004 -4.6145792000000005 -0.22186036399999998
        CHANNELS 3 Yrotation Xrotation Zrotation
        JOINT leftToes
        {
          OFFSET -0.03777410834999995 -0.9130806927000008 0.85230013
          CHANNELS 3 Yrotation Xrotation Zrotation
          End Site
          {
            OFFSET -0.03777410834999995 -0.9130806927000008 0.85230013
          }
        }
      }
    }
  }
  JOINT rightUpperLeg
  {
    OFFSET -0.6642778626 -0.9402397400000004 0
    CHANNELS 3 Yrotation Xrotation Zrotation
    JOINT rightLowerLeg
    {
      OFFSET 0 -3.997221452859387 0
      CHANNELS 3 Yrotation Xrotation Zrotation
      JOINT rightFoot
      {
        OFFSET 0.1377926176 -4.6145792000000005 -0.22185782299999995
        CHANNELS 3 Yrotation Xrotation Zrotation
        JOINT rightToes
        {
          OFFSET 0.037780746850000047 -0.9130806927000008 0.85230167
          CHANNELS 3 Yrotation Xrotation Zrotation
          End Site
          {
            OFFSET 0.037780746850000047 -0.9130806927000008 0.85230167
          }
        }
      }
    }
  }
  JOINT spine
  {
    OFFSET 0 0.13988381660000015 0
    CHANNELS 3 Yrotation Xrotation Zrotation
    JOINT chest
    {
      OFFSET 0 0.6191039003973773 0
      CHANNELS 3 Yrotation Xrotation Zrotation
      JOINT upperChest
      {
        OFFSET 0 0.9855186130586943 0
        CHANNELS 3 Yrotation Xrotation Zrotation
        JOINT leftShoulder
        {
          OFFSET 0.1807663869 1.5087829790000005 0
          CHANNELS 3 Yrotation Xrotation Zrotation
          JOINT leftUpperArm
          {
            OFFSET 0.5985063006419806 0 0
            CHANNELS 3 Yrotation Xrotation Zrotation
            JOINT leftLowerArm
            {
              OFFSET 2.2993332369501065 0 0
              CHANNELS 3 Yrotation Xrotation Zrotation
              JOINT leftHand
              {
                OFFSET 2.395047042602395 0 0
                CHANNELS 3 Yrotation Xrotation Zrotation
                JOINT leftIndexProximal
                {
                  OFFSET 0.5766295810000004 0.04556643899499946 0.17265095988184
                  CHANNELS 3 Yrotation Xrotation Zrotation
                  JOINT leftIndexIntermediate
                  {
                    OFFSET 0.2957229000000008 -0.019352197700001517 -0.007932640616999987
                    CHANNELS 3 Yrotation Xrotation Zrotation
                    JOINT leftIndexDistal
                    {
                      OFFSET 0.19008243099999922 -0.012484908149998475 -0.002786250786000012
                      CHANNELS 3 Yrotation Xrotation Zrotation
                      End Site
                      {
                        OFFSET 0.19008243099999922 -0.012484908149998475 -0.002786250786000012
                      }
                    }
                  }
                }
                JOINT leftMiddleProximal
                {
                  OFFSET 0.5834975091000001 0.0524350405149987 0.02204081888183999
                  CHANNELS 3 Yrotation Xrotation Zrotation
                  JOINT leftMiddleIntermediate
                  {
                    OFFSET 0.33880573540000003 -0.019871473270000717 -0.00000971183179999946
                    CHANNELS 3 Yrotation Xrotation Zrotation
                    JOINT leftMiddleDistal
                    {
                      OFFSET 0.20676022730000088 -0.012221336379999448 0.0001471936708000235
                      CHANNELS 3 Yrotation Xrotation Zrotation
                      End Site
                      {
                        OFFSET 0.20676022730000088 -0.012221336379999448 0.0001471936708000235
                      }
                    }
                  }
                }
                JOINT leftLittleProximal
                {
                  OFFSET 0.5344154683999995 -0.012880921405001189 -0.24414037221816004
                  CHANNELS 3 Yrotation Xrotation Zrotation
                  JOINT leftLittleIntermediate
                  {
                    OFFSET 0.21758961730000093 -0.011650919939999227 0.011893592810000034
                    CHANNELS 3 Yrotation Xrotation Zrotation
                    JOINT leftLittleDistal
                    {
                      OFFSET 0.1475273964999999 -0.008152365682999818 0.006001092492999946
                      CHANNELS 3 Yrotation Xrotation Zrotation
                      End Site
                      {
                        OFFSET 0.1475273964999999 -0.008152365682999818 0.006001092492999946
                      }
                    }
                  }
                }
                JOINT leftRingProximal
                {
                  OFFSET 0.5799399463000003 0.026911854694997794 -0.12150566991816003
                  CHANNELS 3 Yrotation Xrotation Zrotation
                  JOINT leftRingIntermediate
                  {
                    OFFSET 0.26167887460000006 -0.013480186499999602 0.010996293000000053
                    CHANNELS 3 Yrotation Xrotation Zrotation
                    JOINT leftRingDistal
                    {
                      OFFSET 0.17667108799999987 -0.008990287899999228 0.0055541023999999065
                      CHANNELS 3 Yrotation Xrotation Zrotation
                      End Site
                      {
                        OFFSET 0.17667108799999987 -0.008990287899999228 0.0055541023999999065
                      }
                    }
                  }
                }
                JOINT leftThumbProximal
                {
                  OFFSET 0.11018806699999972 -0.09448718900500053 0.17047963138184
                  CHANNELS 3 Yrotation Xrotation Zrotation
                  JOINT leftThumbIntermediate
                  {
                    OFFSET 0.31062601459999983 -0.08126270900000132 0.15443142000000007
                    CHANNELS 3 Yrotation Xrotation Zrotation
                    JOINT leftThumbDistal
                    {
                      OFFSET 0.21627175790000086 -0.08833193599999878 0.018771167799999988
                      CHANNELS 3 Yrotation Xrotation Zrotation
                      End Site
                      {
                        OFFSET 0.21627175790000086 -0.08833193599999878 0.018771167799999988
                      }
                    }
                  }
                }
              }
            }
          }
        }
        JOINT neck
        {
          OFFSET 0 1.5463305265074576 0
          CHANNELS 3 Yrotation Xrotation Zrotation
          JOINT head
          {
            OFFSET 0 0.8456443600000344 0
            CHANNELS 3 Yrotation Xrotation Zrotation
            JOINT leftEye
            {
              OFFSET 0.30408573140000006 0.5104519199999995 0.1276382305
              CHANNELS 3 Yrotation Xrotation Zrotation
              End Site
              {
                OFFSET 0.30408573140000006 0.5104519199999995 0.1276382305
              }
            }
            JOINT rightEye
            {
              OFFSET -0.30409491089999996 0.5104519199999995 0.1276379445
              CHANNELS 3 Yrotation Xrotation Zrotation
              End Site
              {
                OFFSET -0.30409491089999996 0.5104519199999995 0.1276379445
              }
            }
            JOINT jaw
            {
              OFFSET -3.155239131000001e-7 -0.11984121820000082 0.60178107
              CHANNELS 3 Yrotation Xrotation Zrotation
              End Site
              {
                OFFSET -3.155239131000001e-7 -0.11984121820000082 0.60178107
              }
            }
          }
        }
        JOINT rightShoulder
        {
          OFFSET -0.1807303465 1.5087829790000005 0
          CHANNELS 3 Yrotation Xrotation Zrotation
          JOINT rightUpperArm
          {
            OFFSET -0.5985063796536958 0 0
            CHANNELS 3 Yrotation Xrotation Zrotation
            JOINT rightLowerArm
            {
              OFFSET -2.2993322059002854 0 0
              CHANNELS 3 Yrotation Xrotation Zrotation
              JOINT rightHand
              {
                OFFSET -2.395045314457259 0 0
                CHANNELS 3 Yrotation Xrotation Zrotation
                JOINT rightIndexProximal
                {
                  OFFSET -0.5764487688300002 0.0441371204405987 0.17361932004999997
                  CHANNELS 3 Yrotation Xrotation Zrotation
                  JOINT rightIndexIntermediate
                  {
                    OFFSET -0.29573011380000047 -0.01934826376999843 -0.007698921482999974
                    CHANNELS 3 Yrotation Xrotation Zrotation
                    JOINT rightIndexDistal
                    {
                      OFFSET -0.19008373999999884 -0.012503266380000655 -0.0026365778999999897
                      CHANNELS 3 Yrotation Xrotation Zrotation
                      End Site
                      {
                        OFFSET -0.19008373999999884 -0.012503266380000655 -0.0026365778999999897
                      }
                    }
                  }
                }
                JOINT rightMiddleProximal
                {
                  OFFSET -0.5834852037300005 0.05211639405060153 0.02307162440000001
                  CHANNELS 3 Yrotation Xrotation Zrotation
                  JOINT rightMiddleIntermediate
                  {
                    OFFSET -0.33880114510000003 -0.019952774050000954 0.0002455003561999819
                    CHANNELS 3 Yrotation Xrotation Zrotation
                    JOINT rightMiddleDistal
                    {
                      OFFSET -0.20675694929999955 -0.012273788999999091 0.00030209124000002766
                      CHANNELS 3 Yrotation Xrotation Zrotation
                      End Site
                      {
                        OFFSET -0.20675694929999955 -0.012273788999999091 0.00030209124000002766
                      }
                    }
                  }
                }
                JOINT rightLittleProximal
                {
                  OFFSET -0.5346811737299992 -0.011214256288399227 -0.24363941305000003
                  CHANNELS 3 Yrotation Xrotation Zrotation
                  JOINT rightLittleIntermediate
                  {
                    OFFSET -0.21757715980000092 -0.011771559690000988 0.01201554387
                    CHANNELS 3 Yrotation Xrotation Zrotation
                    JOINT rightLittleDistal
                    {
                      OFFSET -0.1475201849000004 -0.00822055339600003 0.006082065407000015
                      CHANNELS 3 Yrotation Xrotation Zrotation
                      End Site
                      {
                        OFFSET -0.1475201849000004 -0.00822055339600003 0.006082065407000015
                      }
                    }
                  }
                }
                JOINT rightRingProximal
                {
                  OFFSET -0.5800810755299999 0.027657985680600072 -0.12066365025000003
                  CHANNELS 3 Yrotation Xrotation Zrotation
                  JOINT rightRingIntermediate
                  {
                    OFFSET -0.26166445029999974 -0.013623118409999302 0.011164098990000045
                    CHANNELS 3 Yrotation Xrotation Zrotation
                    JOINT rightRingDistal
                    {
                      OFFSET -0.17666387530000027 -0.009072900100000503 0.005668185599999959
                      CHANNELS 3 Yrotation Xrotation Zrotation
                      End Site
                      {
                        OFFSET -0.17666387530000027 -0.009072900100000503 0.005668185599999959
                      }
                    }
                  }
                }
                JOINT rightThumbProximal
                {
                  OFFSET -0.10997596379000074 -0.09577489355940072 0.16989765924999997
                  CHANNELS 3 Yrotation Xrotation Zrotation
                  JOINT rightThumbIntermediate
                  {
                    OFFSET -0.31036620999999986 -0.08229339117999834 0.15440884469999996
                    CHANNELS 3 Yrotation Xrotation Zrotation
                    JOINT rightThumbDistal
                    {
                      OFFSET -0.21631306399999906 -0.08825326400000111 0.018656797720000014
                      CHANNELS 3 Yrotation Xrotation Zrotation
                      End Site
                      {
                        OFFSET -0.21631306399999906 -0.08825326400000111 0.018656797720000014
                      }
                    }
                  }
                }
              }
            }
          }
        }
      }
    }
  }
}
MOTION
Frames: 6
Frame Time: 0.03333333333333333
-2.683922713060767e-7 -10.07322438200052 10.734286087095052 180 -85.99556960093058 180 4.612783781745204 -39.43521495918294 29.04952532453574 -153.76018730896814 83.78744443403737 -130.2274074462147 -11.13142803965436 15.727023975621705 -0.32786335312440446 0 0 0 -4.8047256117391255 -39.668041808609715 -29.11250793653101 153.79394873971506 83.79082203081796 130.2610218280021 11.244687336946887 15.747634853998374 0.07808647465051086 0 0 0 0 2.1696147243604798 0 -0.4500575220264 -1.6333474101876548 -0.0002338552909127437 0 0 0 2.1390761157412084 -2.835731320949392 -0.37433196580798567 -0.6208056326476273 -2.036660239347475 -83.38916857488405 -45.178677278618885 0.45567564474396227 2.618780766677511 6.769585462258956 0.07425864452880046 -16.681704755795472 0 0 0 0 0 0 0 0 0 0 0 0 0 0 0 0 0 0 0 0 0 0 0 0 0 0 0 0 0 0 0 0 0 0 0 0 0 0 0 0 0 0 0 0 0 0 14.026611283342234 0 0 -1.9240671001564795 0 0 0 0 0 0 0 0 0 0 -3.286605655098051 1.5718301913305666 1.8321141185497276 0.6739365691503243 -0.7216654928176042 82.91510465469115 66.60849031643829 -0.06583575432985173 3.144085179382762 -2.140295169623223 0.9056374446942956 16.308404824049017 0 0 0 0 0 0 0 0 0 0 0 0 0 0 0 0 0 0 0 0 0 0 0 0 0 0 0 0 0 0 0 0 0 0 0 0 0 0 0 0 0 0 0 0 0
-2.683922713060767e-7 -10.07322438200052 10.734286087095052 180 -85.99556960093058 180 4.396615334782979 -39.19212916748368 28.888227131358946 -153.76018730896814 83.78744443403737 -130.2274074462147 -10.929937169341429 15.627951252976647 -0.6518765563456042 0 0 0 -4.578429945770166 -39.41242466158052 -28.948740056826562 153.79394873971506 83.79082203081796 130.2610218280021 11.037215155838856 15.64677885653087 0.4150458169583753 0 0 0 0 1.794073724086714 0 -0.4499716798852225 -1.4082826222379181 -0.002036234084754083 0 0 0 2.0419758000946984 -2.6091932407345144 -0.7716698016937369 -0.6044454100076666 -2.1365727680088273 -83.09091204219979 -44.90187505933544 0.43566965546542624 2.7254618778772235 6.525470898255106 0.11725564687626497 -16.66056868431777 0 0 0 0 0 0 0 0 0 0 0 0 0 0 0 0 0 0 0 0 0 0 0 0 0 0 0 0 0 0 0 0 0 0 0 0 0 0 0 0 0 0 0 0 0 0 14.527823081294496 0 0 -1.347185029436283 0 0 0 0 0 0 0 0 0 0 -3.1149822789260053 1.567891215556985 2.1557058642382168 0.65207201821646 -0.8906392279914984 82.64063678141082 66.20360854387825 -0.053712372041402556 2.9983142168421044 -2.140295169623223 0.9056374446942956 16.308404824049017 0 0 0 0 0 0 0 0 0 0 0 0 0 0 0 0 0 0 0 0 0 0 0 0 0 0 0 0 0 0 0 0 0 0 0 0 0 0 0 0 0 0 0 0 0
-2.683922713060767e-7 -10.07322438200052 10.734286087095052 180 -85.99556960093058 180 3.9639016088867898 -38.70743463273324 28.563825724277187 -153.76018730896814 83.78744443403737 -130.2274074462147 -10.525563280259052 15.433150071441785 -1.3004535912867727 0 0 0 -4.125528543149903 -38.90274769503214 -28.619115971748684 153.79394873971506 83.79082203081796 130.2610218280021 10.620783798661463 15.448622247548919 1.0895263184672845 0 0 0 0 1.0430486287614855 0 -0.4498228846199735 -0.9581659877851028 -0.005639022531972458 0 0 0 1.8431427094541295 -2.1582157611367667 -1.5672085012989532 -0.5732868676052292 -2.3366359525248943 -82.49446714110647 -44.348387275952945 0.39411510824436574 2.93851361940375 6.037303064482244 0.20351387837020912 -16.61884478953691 0 0 0 0 0 0 0 0 0 0 0 0 0 0 0 0 0 0 0 0 0 0 0 0 0 0 0 0 0 0 0 0 0 0 0 0 0 0 0 0 0 0 0 0 0 0 15.53010320047661 0 0 -0.19362700009619127 0 0 0 0 0 0 0 0 0 0 -2.7718405020239003 1.5571077801068702 2.802798837691028 0.6107716560728462 -1.2288729931232578 82.09189990644953 65.39383100266006 -0.032561634620111655 2.70656350668718 -2.140295169623223 0.9056374446942956 16.308404824049017 0 0 0 0 0 0 0 0 0 0 0 0 0 0 0 0 0 0 0 0 0 0 0 0 0 0 0 0 0 0 0 0 0 0 0 0 0 0 0 0 0 0 0 0 0
-2.683922713060767e-7 -10.07322438200052 10.734286087095052 180 -85.99556960093058 180 3.7473539582988726 -38.46584649957525 28.400728862735914 -153.76018730896814 83.78744443403737 -130.2274074462147 -10.322696518596702 15.337419663738183 -1.6249938242604505 0 0 0 -3.898916396990948 -38.648706019034705 -28.45328210772469 153.79394873971506 83.79082203081796 130.2610218280021 10.411852285678108 15.351333562559448 1.4270248168133215 0 0 0 0 0.6675806653322408 0 -0.449758906991828 -0.733117174455102 -0.007440520432082244 0 0 0 1.7414212657034767 -1.9338152485637135 -1.9654031201588247 -0.5584893421804825 -2.436777209838392 -82.19627063401242 -44.0717224839814 0.3725682871955956 3.044877530157356 5.793256216806162 0.24677330987033808 -16.5982578694698 0 0 0 0 0 0 0 0 0 0 0 0 0 0 0 0 0 0 0 0 0 0 0 0 0 0 0 0 0 0 0 0 0 0 0 0 0 0 0 0 0 0 0 0 0 0 16.031140406615133 0 0 0.3829899950376345 0 0 0 0 0 0 0 0 0 0 -2.600340843706697 1.5502636555263651 3.1262813121263004 0.5913370127938312 -1.3981188141719918 81.81760605092309 64.98895261909271 -0.023534477994015552 2.560605267247434 -2.140295169623223 0.9056375514293344 16.308408102143737 0 0 0 0 0 0 0 0 0 0 0 0 0 0 0 0 0 0 0 0 0 0 0 0 0 0 0 0 0 0 0 0 0 0 0 0 0 0 0 0 0 0 0 0 0
-2.683922713060767e-7 -10.07322438200052 10.734286087095052 180 -85.99556960093058 180 3.313891410858275 -37.9842198662753 28.072722950647087 -153.76018730896814 83.78744443403737 -130.2274074462147 -9.915667137445528 15.149336203449502 -2.274529511150557 0 0 0 -3.445374692357642 -38.14228932156153 -28.119594030373683 153.79394873971506 83.79082203081796 130.2610218280021 9.992617311094591 15.160378742588799 2.102482266858836 0 0 0 0 -0.08322735172864078 0 -0.4496527581853189 -0.2830465917125319 -0.011040952971371466 0 0 0 1.5334037258985775 -1.4872805221225152 -2.7626348231657145 -0.5304601830587765 -2.6372612203820434 -81.59995162015018 -43.51858378503993 0.32793936967273485 3.2572654117593074 5.305237077259302 0.3335461946259093 -16.557640132430056 0 0 0 0 0 0 0 0 0 0 0 0 0 0 0 0 0 0 0 0 0 0 0 0 0 0 0 0 0 0 0 0 0 0 0 0 0 0 0 0 0 0 0 0 0 0 17.032902902790028 0 0 1.5357589715904414 0 0 0 0 0 0 0 0 0 0 -2.2575274679367565 1.5336771515364278 3.773072459871393 0.5549002485567124 -1.7368363540032725 81.26919090430911 64.17933239601352 -0.008577271883964946 2.268583033463842 -2.140293975459678 0.9056371244891789 16.308404824049017 0 0 0 0 0 0 0 0 0 0 0 0 0 0 0 0 0 0 0 0 0 0 0 0 0 0 0 0 0 0 0 0 0 0 0 0 0 0 0 0 0 0 0 0 0
-2.683922713060767e-7 -10.07322438200052 10.734286087095052 180 -85.99556960093058 180 3.0969710511271984 -37.744205908966705 27.907852038820742 -153.76018730896814 83.78744443403737 -130.2274074462147 -9.71152094707147 15.056990235427559 -2.599501940465733 0 0 0 -3.218447175352555 -37.88993615815091 -27.95175584772578 153.79394873971506 83.79082203081796 130.2610218280021 9.782338318316857 15.066721166078441 2.4404169322109013 0 0 0 0 -0.4585493248490441 0 -0.44960956674641256 -0.05803077787362579 -0.012840932400763175 0 0 0 1.4271204764519938 -1.2651856504011239 -3.161664664405884 -0.5172280152659007 -2.737593934260658 -81.3018591392674 -43.242116149855825 0.3048600218546308 3.363280748404527 5.061273991625524 0.3770574717228119 -16.53761119200429 0 0 0 0 0 0 0 0 0 0 0 0 0 0 0 0 0 0 0 0 0 0 0 0 0 0 0 0 0 0 0 0 0 0 0 0 0 0 0 0 0 0 0 0 0 0 17.533596088186265 0 0 2.1118509852688088 0 0 0 0 0 0 0 0 0 0 -2.086231383775482 1.5239354349108545 4.096359366154737 0.5378986252465349 -1.9062948386078107 80.99506765920877 63.774611040823174 -0.0026481817777213286 2.12254007880339 -2.140295169623223 0.9056374446942956 16.308404824049017 0 0 0 0 0 0 0 0 0 0 0 0 0 0 0 0 0 0 0 0 0 0 0 0 0 0 0 0 0 0 0 0 0 0 0 0 0 0 0 0 0 0 0 0 0
